<svg width="56" height="56" viewBox="0 0 56 56" fill="none" xmlns="http://www.w3.org/2000/svg">
<rect width="56" height="56" rx="28" fill="#E0DCD5"/>
<path d="M16.3333 37.3333V17.3333C16.3333 16.9797 16.4738 16.6406 16.7239 16.3905C16.9739 16.1405 17.313 16 17.6667 16H29.6667C30.0203 16 30.3594 16.1405 30.6095 16.3905C30.8595 16.6406 31 16.9797 31 17.3333V28H33.6667C34.3739 28 35.0522 28.281 35.5523 28.781C36.0524 29.2811 36.3333 29.9594 36.3333 30.6667V36C36.3333 36.3536 36.4738 36.6928 36.7239 36.9428C36.9739 37.1929 37.313 37.3333 37.6667 37.3333C38.0203 37.3333 38.3594 37.1929 38.6095 36.9428C38.8595 36.6928 39 36.3536 39 36V26.6667H36.3333C35.9797 26.6667 35.6406 26.5262 35.3905 26.2761C35.1405 26.0261 35 25.687 35 25.3333V20.552L32.7907 18.3427L34.676 16.4573L41.276 23.0573C41.4 23.181 41.4983 23.3279 41.5654 23.4897C41.6324 23.6515 41.6668 23.8249 41.6667 24V36C41.6667 37.0609 41.2452 38.0783 40.4951 38.8284C39.7449 39.5786 38.7275 40 37.6667 40C36.6058 40 35.5884 39.5786 34.8382 38.8284C34.0881 38.0783 33.6667 37.0609 33.6667 36V30.6667H31V37.3333H32.3333V40H15V37.3333H16.3333ZM19 18.6667V26.6667H28.3333V18.6667H19Z" fill="#403D39"/>
</svg>
