<svg width="24" height="24" viewBox="0 0 24 24" fill="none" xmlns="http://www.w3.org/2000/svg">
<rect width="24" height="24" rx="12" fill="#EC5D2A"/>
<path d="M11.4765 11.5357L17.0122 6L18.0095 6.99725L17.0122 7.99521L18.757 9.74006L17.7598 10.738L16.0142 8.99247L15.017 9.98972L16.5129 11.4856L15.5156 12.4836L14.0197 10.987L12.4738 12.5329C12.9537 13.2622 13.1461 14.1435 13.014 15.0064C12.8818 15.8693 12.4343 16.6526 11.7581 17.2047C11.0819 17.7569 10.225 18.0387 9.35307 17.9957C8.48114 17.9527 7.65612 17.5879 7.03754 16.9719C6.41762 16.3543 6.04947 15.5283 6.00464 14.6544C5.9598 13.7805 6.24148 12.9212 6.79493 12.2434C7.34839 11.5656 8.13407 11.1178 8.99929 10.987C9.86452 10.8562 10.7475 11.0518 11.4765 11.5357ZM11.0273 15.974C11.2327 15.7796 11.3971 15.5461 11.5108 15.2871C11.6244 15.0281 11.685 14.749 11.6889 14.4662C11.6929 14.1835 11.6401 13.9028 11.5337 13.6407C11.4273 13.3787 11.2694 13.1407 11.0694 12.9407C10.8695 12.7407 10.6314 12.5829 10.3694 12.4765C10.1074 12.3701 9.82669 12.3173 9.54392 12.3212C9.26114 12.3251 8.98202 12.3857 8.72305 12.4994C8.46409 12.613 8.23054 12.7774 8.0362 12.9829C7.65079 13.3819 7.43753 13.9164 7.44235 14.4712C7.44717 15.0259 7.66969 15.5566 8.06198 15.9489C8.45427 16.3412 8.98494 16.5637 9.5397 16.5685C10.0945 16.5733 10.6289 16.3601 11.028 15.9747L11.0273 15.974Z" fill="white"/>
</svg>
