<svg width="16" height="16" viewBox="0 0 16 16" fill="none" xmlns="http://www.w3.org/2000/svg">
<path d="M13.3033 2.69662L12.125 3.87495C11.1708 2.92062 9.91514 2.32667 8.57208 2.19432C7.22902 2.06197 5.88161 2.3994 4.75945 3.14911C3.63728 3.89883 2.80978 5.01445 2.41795 6.30588C2.02612 7.59731 2.09419 8.98465 2.61057 10.2315C3.12695 11.4784 4.05969 12.5076 5.24986 13.1439C6.44003 13.7802 7.81399 13.9841 9.13765 13.7209C10.4613 13.4577 11.6527 12.7436 12.509 11.7005C13.3652 10.6573 13.8332 9.34952 13.8333 7.99995H15.5C15.5 9.73512 14.8983 11.4166 13.7975 12.7579C12.6968 14.0992 11.1649 15.0173 9.46312 15.3558C7.76129 15.6943 5.99475 15.4322 4.46448 14.6143C2.9342 13.7963 1.73489 12.4731 1.07088 10.87C0.406878 9.26688 0.319262 7.48315 0.822965 5.8227C1.32667 4.16226 2.39052 2.72783 3.83327 1.76384C5.27601 0.799844 7.00837 0.365922 8.73518 0.536009C10.462 0.706096 12.0764 1.46967 13.3033 2.69662Z" fill="#0C120C"/>
</svg>
