<svg width="171" height="40" viewBox="0 0 171 40" fill="none" xmlns="http://www.w3.org/2000/svg">
<path d="M0 39.1816V31.509L25.1151 6.85422L32.7877 9.10486H0.153453V0.767263H36.8798V8.4399L11.7647 33.1458L5.16624 30.844H37.0332V39.1816H0Z" fill="#EC5D2A"/>
<path d="M75.5303 16.1637V23.8363H47.4484V16.1637H75.5303ZM54.6607 20L52.1543 35.3964L47.8577 30.5882H77.2183V39.1816H41.5661L44.4817 20L41.5661 0.818413H76.9625V9.41176H47.8577L52.1543 4.60358L54.6607 20Z" fill="#EC5D2A"/>
<path d="M90.6682 17.5959H104.632C106.337 17.5959 107.667 17.2037 108.622 16.4194C109.577 15.6351 110.054 14.5439 110.054 13.1458C110.054 11.7136 109.577 10.6223 108.622 9.87212C107.667 9.08781 106.337 8.69565 104.632 8.69565H89.1848L93.9418 3.63171V39.1816H83.3536V0.818413H106.116C109.048 0.818413 111.606 1.34697 113.788 2.40409C115.971 3.42711 117.676 4.85933 118.903 6.70077C120.131 8.5081 120.745 10.6564 120.745 13.1458C120.745 15.5669 120.131 17.6982 118.903 19.5396C117.676 21.3811 115.971 22.8133 113.788 23.8363C111.606 24.8593 109.048 25.3708 106.116 25.3708H90.6682V17.5959ZM96.397 21.2276H108.315L122.075 39.1816H109.799L96.397 21.2276Z" fill="#EC5D2A"/>
<path d="M147.486 40C142.951 40 138.961 39.1645 135.517 37.4936C132.107 35.8227 129.447 33.4868 127.538 30.4859C125.662 27.4851 124.724 23.9898 124.724 20C124.724 16.0102 125.662 12.5149 127.538 9.51406C129.447 6.51321 132.107 4.17732 135.517 2.50639C138.961 0.835465 142.951 0 147.486 0C152.056 0 156.046 0.835465 159.456 2.50639C162.866 4.17732 165.526 6.51321 167.435 9.51406C169.345 12.5149 170.3 16.0102 170.3 20C170.3 23.9898 169.345 27.4851 167.435 30.4859C165.526 33.4868 162.866 35.8227 159.456 37.4936C156.046 39.1645 152.056 40 147.486 40ZM147.486 30.5371C149.976 30.5371 152.124 30.1108 153.931 29.2583C155.739 28.4058 157.12 27.1952 158.075 25.6266C159.064 24.058 159.558 22.1824 159.558 20C159.558 17.8176 159.064 15.942 158.075 14.3734C157.12 12.8048 155.739 11.5942 153.931 10.7417C152.124 9.88917 149.976 9.46291 147.486 9.46291C145.031 9.46291 142.9 9.88917 141.093 10.7417C139.285 11.5942 137.887 12.8048 136.898 14.3734C135.909 15.942 135.415 17.8176 135.415 20C135.415 22.1824 135.909 24.058 136.898 25.6266C137.887 27.1952 139.285 28.4058 141.093 29.2583C142.9 30.1108 145.031 30.5371 147.486 30.5371Z" fill="#EC5D2A"/>
</svg>
